<svg xmlns="http://www.w3.org/2000/svg" enable-background="new 0 0 24 24" viewBox="0 0 24 24"><polygon fill="#2E7FCA" points="11.969 7.81 11.353 5.53 11.353 5.53 11.969 7.81"/><path fill="#2E7FCA" d="M6.779,10.236C6.615,10.138,6.495,9.98,6.446,9.795L5.839,7.517L3.922,8.415c-0.321,0.151-0.489,0.51-0.397,0.853l2.44,9.151c0.118,0.441,0.605,0.669,1.019,0.476l6.073-2.833l-0.67-2.48L6.779,10.236z"/><path fill="#2E7FCA" d="M12.14,6.28l-0.151-0.558c-0.05-0.183-0.168-0.34-0.331-0.438L4.173,0.799C3.915,0.644,3.598,0.882,3.676,1.174l1.925,7.221l5.519-2.588C11.534,5.614,12.021,5.84,12.14,6.28z"/><path fill="#0A4DA5" d="M5.754,10.365l5.606,3.345l-1.187-4.392c-0.093-0.344,0.075-0.705,0.398-0.856l1.397-0.652L11.353,5.53c-0.119-0.44-0.606-0.666-1.019-0.473L4.814,7.645l0.608,2.279C5.471,10.108,5.59,10.267,5.754,10.365z"/><polygon fill="#2E7FCA" points="12.031 16.19 12.647 18.47 12.647 18.47 12.031 16.19"/><path fill="#FDD700" d="M20.924,14.732l-2.44-9.151c-0.118-0.441-0.605-0.669-1.019-0.476l-6.073,2.833l0.67,2.48l5.606,3.345c0.164,0.098,0.284,0.256,0.333,0.441l0.608,2.279l1.917-0.899C20.849,15.434,21.016,15.075,20.924,14.732z"/><polygon fill="#2E7FCA" points="11.361 13.71 11.361 13.71 12.031 16.19 12.031 16.19"/><polygon fill="#2E7FCA" points="12.639 10.29 12.639 10.29 11.969 7.81 11.969 7.81"/><path fill="#45681B" d="M11.569,9.652l1.07,0.638l-0.67-2.48l-1.397,0.652c-0.323,0.151-0.491,0.512-0.398,0.856l1.187,4.392l0,0l-0.875-3.237C10.314,9.836,11.003,9.314,11.569,9.652z"/><path fill="#FDD700" d="M12.281,17.72l0.151,0.558c0.05,0.183,0.168,0.34,0.331,0.438l7.485,4.485c0.259,0.155,0.575-0.083,0.497-0.375l-1.925-7.221L13.3,18.193C12.887,18.386,12.4,18.16,12.281,17.72z"/><path fill="#F9BC00" d="M18.246,13.635l-5.606-3.345l1.187,4.392c0.093,0.344-0.075,0.705-0.398,0.856l-1.397,0.652l0.616,2.281c0.119,0.44,0.606,0.666,1.019,0.473l5.519-2.588l-0.608-2.279C18.529,13.892,18.41,13.733,18.246,13.635z"/><path fill="#5A7F19" d="M13.514,13.527c0.172,0.636-0.518,1.159-1.084,0.821l-1.07-0.638l0.67,2.48l1.397-0.652c0.323-0.151,0.491-0.512,0.398-0.856l-1.187-4.392l0,0L13.514,13.527z"/><path fill="#2B5A20" d="M13.514,13.527l-0.875-3.237l-1.07-0.638c-0.566-0.338-1.256,0.185-1.084,0.821l0.875,3.237l1.07,0.638C12.997,14.686,13.686,14.164,13.514,13.527z"/><path d="M6.17,19.317c-0.161,0-0.318-0.034-0.465-0.102c-0.491-0.228-0.646-0.73-0.672-0.828l-2.232-8.59C2.594,9.007,3.053,8.382,3.566,8.136l1.146-0.549L3.056,1.23C2.888,0.604,3.213,0.282,3.36,0.172c0.341-0.251,0.81-0.227,1.29,0.072l6.338,4.006c0.843,0.523,1.067,1.293,1.09,1.379c0.011,0.039,0.018,0.079,0.021,0.12l2.221,8.508c0.007,0.024,0.021,0.104,0.024,0.129c0.128,0.727-0.325,1.308-0.802,1.534l-6.805,3.261C6.55,19.272,6.357,19.317,6.17,19.317z M4.264,9.465l2.136,8.216l6.497-3.114L10.628,6.05c-0.006-0.024-0.011-0.048-0.015-0.072c-0.039-0.083-0.156-0.292-0.421-0.456l-5.35-3.381L6.32,7.808c0.091,0.347-0.078,0.71-0.401,0.866L4.264,9.465z M4.214,9.489C4.214,9.489,4.214,9.489,4.214,9.489L4.214,9.489L4.214,9.489z"/><path d="M20.102,24c-0.235,0-0.493-0.081-0.753-0.24l-6.339-4.006c-0.459-0.286-0.806-0.688-1.026-1.193c-0.009-0.02-0.048-0.131-0.055-0.152l-0.114-0.429c-0.104-0.401,0.135-0.811,0.535-0.916c0.397-0.102,0.811,0.134,0.916,0.535l0.1,0.38c0.028,0.062,0.139,0.315,0.442,0.504l5.352,3.382l-1.475-5.656c-0.091-0.35,0.079-0.714,0.406-0.868l1.7-0.8l-2.189-8.196l-3.479,1.661c-0.377,0.18-0.822,0.02-1-0.354c-0.179-0.374-0.021-0.821,0.354-1l3.79-1.81c0.354-0.167,0.723-0.177,1.036-0.029c0.489,0.23,0.639,0.732,0.664,0.83l2.229,8.587c0.214,0.78-0.241,1.41-0.755,1.662l-1.147,0.54l1.652,6.337c0.163,0.626-0.161,0.948-0.308,1.057C20.482,23.942,20.3,24,20.102,24z M17.515,6.019c0,0.001,0,0.002,0.001,0.003L17.515,6.019z"/></svg>